
            <svg data-logo="logo" xmlns="http://www.w3.org/2000/svg" viewBox="0 0 161 40">
                <g id="logogram" transform="translate(0, 0)"><path d="M0 20C0 10.572 9.53674e-07 5.857 2.929 2.929C5.857 9.53674e-07 10.571 0 20 0C29.428 0 34.142 9.53674e-07 37.071 2.929C40 5.857 40 10.572 40 20C40 29.428 40 34.142 37.071 37.071C34.142 40 29.428 40 20 40C10.571 40 5.857 40 2.929 37.071C9.53674e-07 34.142 0 29.428 0 20Z" fill="#243A5A"/><path d="M26.668 17.6251C27.528 17.3941 27.68 16.2381 26.909 15.7931L26.402 15.5001C25.923 15.2241 25.752 14.6 26.138 14.205C26.544 13.789 27.039 13.4641 27.591 13.2561C28.457 12.9301 29.409 12.914 30.285 13.212C31.162 13.509 31.908 14.1021 32.396 14.8871C32.885 15.6731 33.086 16.604 32.965 17.522C32.845 18.439 32.409 19.2871 31.734 19.9191C31.059 20.5521 30.185 20.9311 29.261 20.9911C28.338 21.0521 27.422 20.7901 26.67 20.2511C26.191 19.9081 25.797 19.4651 25.512 18.9591C25.242 18.4771 25.568 17.9191 26.102 17.7761L26.668 17.6251ZM13.897 17.7761C14.431 17.9191 14.757 18.4771 14.487 18.9591C14.202 19.4651 13.808 19.9081 13.329 20.2511C12.577 20.7901 11.661 21.0521 10.738 20.9911C9.81499 20.9311 8.94098 20.5521 8.26498 19.9191C7.58998 19.2871 7.15499 18.439 7.03399 17.522C6.91299 16.604 7.114 15.6731 7.603 14.8871C8.091 14.1021 8.83799 13.509 9.71399 13.212C10.59 12.914 11.542 12.9301 12.409 13.2561C12.96 13.4641 13.455 13.789 13.861 14.205C14.247 14.6 14.076 15.2241 13.598 15.5001L13.09 15.7931C12.319 16.2381 12.471 17.3941 13.331 17.6251L13.897 17.7761ZM23.999 26.0001C24.552 26.0001 25.01 26.4521 24.9 26.9931C24.706 27.9491 24.235 28.835 23.535 29.535C22.597 30.473 21.326 31.0001 19.999 31.0001C18.673 31.0001 17.402 30.473 16.464 29.535C15.764 28.835 15.293 27.9491 15.099 26.9931C14.989 26.4521 15.447 26.0001 15.999 26.0001H23.999Z" fill="#2DF8BB"/></g>
                <g id="logotype" transform="translate(43, 2)"><path fill="#111111" d="M22.07 15.76L22.07 15.76Q22.11 16.00 22.09 16.12Q22.07 16.24 22.06 16.34Q22.04 16.44 22.04 16.56Q22.04 16.68 22.11 16.92L22.11 16.92Q21.39 18.08 20.45 18.51Q19.51 18.94 18.42 19.12Q17.32 19.31 16.18 19.52Q15.03 19.72 13.90 20.41L13.90 20.41Q13.46 20.23 13.10 20.41Q12.74 20.58 12.06 20.51L12.06 20.51Q11.85 20.71 11.54 20.80Q11.24 20.88 10.93 20.99L10.93 20.99Q11.07 21.29 11.05 21.62Q11.03 21.94 11.13 22.15L11.13 22.15Q12.33 22.25 13.78 22.11Q15.24 21.98 16.64 21.94L16.64 21.94Q16.67 22.11 16.60 22.17Q16.54 22.22 16.57 22.35L16.57 22.35Q16.81 22.52 17.05 22.78Q17.29 23.04 17.53 23.28Q17.77 23.52 18.02 23.67Q18.28 23.82 18.62 23.79L18.62 23.79Q18.76 24.06 18.81 24.39Q18.86 24.71 18.72 25.05L18.72 25.05Q18.18 25.43 17.63 25.82Q17.08 26.22 16.48 26.52Q15.89 26.83 15.22 27.02Q14.55 27.21 13.73 27.17L13.73 27.17Q13.56 27.17 13.48 27.17Q13.39 27.17 13.25 27.07L13.25 27.07Q12.98 27.24 12.48 27.17Q11.99 27.10 11.72 27.28L11.72 27.28Q11.34 27.10 10.81 27.12Q10.28 27.14 9.87 27.00L9.87 27.00Q9.32 27.72 8.88 28.54Q8.43 29.36 8.09 30.28L8.09 30.28Q9.25 30.45 10.02 30.42Q10.79 30.39 11.48 30.30Q12.16 30.21 12.88 30.13Q13.60 30.04 14.69 30.08L14.69 30.08Q15.37 29.70 16.31 29.58Q17.25 29.46 18.04 29.19L18.04 29.19Q18.31 29.29 18.52 29.55Q18.72 29.80 18.91 30.03Q19.10 30.25 19.30 30.42Q19.51 30.59 19.82 30.56L19.82 30.56Q19.95 30.69 20.00 30.88Q20.06 31.07 20.09 31.24Q20.12 31.41 20.21 31.53Q20.29 31.65 20.50 31.62L20.50 31.62Q19.99 32.74 19.32 33.34Q18.65 33.94 17.80 34.25Q16.95 34.56 15.90 34.73Q14.86 34.90 13.60 35.14L13.60 35.14Q13.29 35.21 13.08 35.12Q12.88 35.03 12.60 35.03L12.60 35.03Q11.82 35.21 10.72 35.34Q9.63 35.48 8.50 35.44Q7.38 35.41 6.35 35.15Q5.32 34.90 4.67 34.25L4.67 34.25Q4.40 34.01 4.32 33.68Q4.23 33.36 3.85 33.19L3.85 33.19Q3.82 32.74 3.72 32.20Q3.62 31.65 3.51 31.05Q3.41 30.45 3.36 29.87Q3.31 29.29 3.41 28.81L3.41 28.81Q3.51 28.30 3.84 27.89Q4.16 27.48 4.06 27.00L4.06 27.00Q4.23 26.97 4.26 26.81Q4.30 26.66 4.54 26.69L4.54 26.69Q4.74 26.08 4.98 25.53Q5.22 24.99 5.48 24.47Q5.73 23.96 5.99 23.43Q6.25 22.90 6.49 22.25L6.49 22.25Q6.01 21.81 5.79 21.28Q5.56 20.75 5.46 20.22Q5.36 19.69 5.29 19.12Q5.22 18.56 5.05 17.98L5.05 17.98Q5.39 17.47 5.89 17.14Q6.38 16.82 6.96 16.61Q7.55 16.41 8.23 16.27Q8.91 16.13 9.67 15.96L9.67 15.96Q11.03 15.52 12.11 15.28Q13.19 15.04 14.23 14.89Q15.27 14.73 16.40 14.59Q17.53 14.46 18.96 14.18L18.96 14.18Q19.27 14.49 19.54 14.49L19.54 14.49Q19.68 14.18 19.87 14.30Q20.06 14.42 20.02 14.12L20.02 14.12Q20.36 14.70 20.89 15.09Q21.42 15.48 22.07 15.76ZM21.70 19.58L21.70 19.58Q21.80 19.07 21.83 18.75Q21.87 18.42 21.59 18.05L21.59 18.05Q21.73 17.50 21.82 17.19Q21.90 16.88 21.83 16.34L21.83 16.34Q22.14 15.45 22.77 14.83Q23.41 14.22 24.16 13.79Q24.91 13.36 25.73 13.07Q26.55 12.78 27.27 12.58L27.27 12.58Q27.27 12.44 27.13 12.44Q26.99 12.44 27.06 12.27L27.06 12.27Q28.91 11.93 30.77 11.28Q32.63 10.63 34.58 10.12Q36.53 9.60 38.58 9.48Q40.63 9.37 42.89 10.01L42.89 10.01Q43.02 10.42 43.26 10.80Q43.50 11.18 43.76 11.54Q44.02 11.89 44.22 12.24Q44.43 12.58 44.46 12.95L44.46 12.95Q44.87 13.33 45.13 13.76Q45.38 14.18 45.21 14.90L45.21 14.90Q44.84 15.18 44.43 15.45Q44.02 15.72 43.57 15.96L43.57 15.96Q42.03 15.59 40.50 15.69Q38.96 15.79 37.73 15.93L37.73 15.93Q37.35 15.52 36.84 15.53Q36.33 15.55 35.76 15.71Q35.20 15.86 34.65 16.01Q34.10 16.17 33.63 16.10L33.63 16.10Q33.25 16.44 32.63 16.56Q32.02 16.68 31.33 16.75L31.33 16.75Q31.30 16.92 31.40 16.99Q31.51 17.06 31.44 17.26L31.44 17.26Q31.68 17.57 32.09 17.69Q32.50 17.81 32.92 17.91Q33.35 18.01 33.69 18.20Q34.04 18.39 34.14 18.80L34.14 18.80Q34.75 18.83 35.20 19.12Q35.64 19.41 35.95 19.82Q36.26 20.23 36.39 20.70Q36.53 21.16 36.50 21.53L36.50 21.53Q36.63 21.88 36.79 21.81Q36.94 21.74 37.15 21.98L37.15 21.98Q37.28 22.49 37.78 23.05Q38.27 23.62 38.55 24.27L38.55 24.27Q38.62 25.29 38.67 26.11Q38.72 26.93 38.38 27.72L38.38 27.72Q37.79 29.22 36.70 30.42Q35.61 31.62 34.22 32.52Q32.84 33.43 31.30 34.09Q29.76 34.76 28.26 35.21L28.26 35.21Q28.12 35.17 27.93 35.21Q27.75 35.24 27.85 35L27.85 35Q27.54 35.27 27.15 35.34Q26.75 35.41 26.29 35.39Q25.83 35.38 25.37 35.34Q24.91 35.31 24.46 35.38L24.46 35.38Q24.19 35.10 23.97 34.83Q23.75 34.56 23.61 34.18L23.61 34.18Q23.44 34.15 23.46 33.96Q23.47 33.77 23.30 33.77L23.30 33.77Q23.30 33.63 23.34 33.56Q23.37 33.50 23.41 33.43L23.41 33.43Q23.54 33.33 23.52 33.27Q23.51 33.22 23.42 33.17Q23.34 33.12 23.25 33.05Q23.17 32.98 23.20 32.88L23.20 32.88Q23.37 32.57 23.32 32.15Q23.27 31.72 23.23 31.27Q23.20 30.83 23.30 30.44Q23.41 30.04 23.88 29.77L23.88 29.77Q25.29 29.91 26.53 29.63Q27.78 29.36 28.89 28.88Q30.00 28.40 31.01 27.84Q32.02 27.28 32.98 26.80L32.98 26.80Q33.08 26.46 33.30 26.22Q33.52 25.98 33.76 25.75Q34.00 25.53 34.21 25.28Q34.41 25.02 34.51 24.64L34.51 24.64Q34.55 24.51 34.51 24.44Q34.48 24.37 34.41 24.32Q34.34 24.27 34.27 24.20Q34.21 24.13 34.21 23.99L34.21 23.99Q34.10 23.96 34.02 23.93Q33.93 23.89 33.86 23.89L33.86 23.89Q32.98 23.45 31.98 23.14Q30.99 22.83 30.31 22.46L30.31 22.46Q29.90 22.73 29.49 22.59Q29.08 22.46 28.50 22.32L28.50 22.32Q27.06 22.25 25.78 22.05Q24.50 21.84 23.30 21.33L23.30 21.33Q23.23 21.12 23.13 20.97Q23.03 20.82 22.65 20.88L22.65 20.88Q22.41 20.54 22.16 20.25Q21.90 19.96 21.70 19.58ZM60.87 18.56L60.87 18.56Q60.01 18.56 59.02 18.68Q58.03 18.80 57.07 18.94L57.07 18.94Q56.39 19.04 55.76 19.11Q55.12 19.17 54.61 19.21L54.61 19.21Q54.37 19.96 54.13 20.54Q53.89 21.12 53.62 21.67L53.62 21.67Q53.35 22.25 53.12 22.85Q52.90 23.45 52.70 24.13L52.70 24.13Q52.36 24.68 52.13 25.14Q51.91 25.60 51.77 26.18L51.77 26.18Q51.36 26.69 51.16 27.26Q50.95 27.82 50.85 28.23L50.85 28.23L50.71 28.64Q50.51 28.85 50.48 28.97Q50.44 29.09 50.30 29.19L50.30 29.19Q50.27 29.57 50.07 29.94L50.07 29.94Q50.00 30.11 49.96 30.27Q49.93 30.42 49.93 30.49L49.93 30.49Q49.93 30.83 49.76 30.93L49.76 30.93Q49.79 31.10 49.76 31.29Q49.72 31.48 49.69 31.65L49.69 31.65Q49.59 32.06 49.62 32.30L49.62 32.30Q49.72 32.44 49.81 32.54Q49.89 32.64 49.93 32.81L49.93 32.81Q50.13 32.95 50.24 32.98L50.24 32.98Q50.37 33.09 50.65 33.22L50.65 33.22L50.95 33.56Q51.13 34.56 50.65 35.14L50.65 35.14Q50.13 35.79 48.90 35.79L48.90 35.79L48.49 35.79Q48.32 35.62 48.29 35.51L48.29 35.51Q48.01 35.41 47.84 35.34Q47.67 35.27 47.54 35.07L47.54 35.07Q47.09 34.86 46.82 34.73L46.82 34.73L46.51 34.56Q46.51 34.18 46.51 34.15L46.51 34.15Q46.27 33.84 46.15 33.46Q46.03 33.09 45.96 32.71L45.96 32.71Q45.90 32.40 45.81 32.13Q45.72 31.86 45.59 31.65L45.59 31.65Q45.52 29.67 45.96 28.30Q46.41 26.93 46.89 25.67L46.89 25.67Q47.16 24.99 47.43 24.28Q47.71 23.58 47.91 22.83L47.91 22.83L48.22 22.49Q48.46 21.94 48.61 21.58Q48.77 21.23 48.94 20.85L48.94 20.85Q49.04 20.61 49.13 20.39Q49.21 20.17 49.28 20.00L49.28 20.00Q49.07 20.00 48.90 20.01Q48.73 20.03 48.56 20.06L48.56 20.06Q48.36 20.10 48.19 20.11Q48.01 20.13 47.84 20.13L47.84 20.13Q47.60 20.13 47.50 20.10L47.50 20.10Q47.13 20.27 46.68 20.27L46.68 20.27L46.34 20.27Q46.24 20.27 46.15 20.25Q46.07 20.23 46.00 20.23L46.00 20.23Q45.66 20.23 45.45 20.34L45.45 20.34Q45.04 20.34 44.67 20.34L44.67 20.34L44.32 20.34Q44.25 20.34 44.15 20.35Q44.05 20.37 43.98 20.37L43.98 20.37Q43.74 20.37 43.47 20.32Q43.20 20.27 42.89 20.10L42.89 20.10Q42.48 19.55 42.34 19.52L42.34 19.52L42.03 19.11Q42.00 18.90 41.93 18.71Q41.86 18.53 41.79 18.29L41.79 18.29Q41.66 17.94 41.54 17.55Q41.42 17.16 41.42 16.61L41.42 16.61Q41.45 16.34 41.55 16.20Q41.66 16.06 41.73 15.96L41.73 15.96L41.83 15.45L42.27 15.48L43.23 15.48Q44.32 15.48 45.45 15.40Q46.58 15.31 47.78 15.21L47.78 15.21Q48.46 15.14 49.16 15.07Q49.86 15.00 50.61 14.94L50.61 14.94Q50.75 14.63 50.89 14.36L50.89 14.36L51.23 14.18Q51.84 14.15 52.10 14.34Q52.36 14.53 52.53 14.70L52.53 14.70Q53.28 14.63 54.05 14.54Q54.82 14.46 55.60 14.32L55.60 14.32Q56.76 14.15 57.94 14.01Q59.12 13.88 60.22 13.88L60.22 13.88Q60.70 13.88 61.14 13.91Q61.58 13.95 61.96 14.01L61.96 14.01L62.30 14.25Q62.40 14.46 62.59 14.63Q62.78 14.80 62.99 14.97L62.99 14.97Q63.40 15.35 63.81 15.86Q64.22 16.37 64.11 17.36L64.11 17.36Q63.84 17.77 63.70 17.84L63.70 17.84L63.40 18.25L63.05 18.22Q62.85 18.22 62.68 18.27Q62.51 18.32 62.34 18.39L62.34 18.39Q62.20 18.46 62.06 18.51Q61.93 18.56 61.75 18.59L61.75 18.59Q61.45 18.59 61.26 18.58Q61.07 18.56 60.87 18.56ZM77.07 24.75L77.07 24.75Q77.03 25.16 77.14 25.53Q77.24 25.91 77.39 26.27Q77.55 26.63 77.68 27.00Q77.82 27.38 77.89 27.75L77.89 27.75Q77.96 28.23 77.89 28.80Q77.82 29.36 77.65 29.89Q77.48 30.42 77.20 30.85Q76.93 31.27 76.55 31.48L76.55 31.48Q76.08 32.09 75.39 32.44Q74.71 32.78 74.13 33.26L74.13 33.26Q73.75 33.50 73.29 33.60Q72.83 33.70 72.35 33.80L72.35 33.80Q71.97 34.01 71.46 34.23Q70.95 34.45 70.40 34.64Q69.86 34.83 69.31 34.91Q68.76 35 68.35 34.97L68.35 34.97Q67.33 35.34 66.35 35.46Q65.38 35.58 64.08 35.31L64.08 35.31Q62.85 35.48 61.81 35.21Q60.76 34.93 59.96 34.33Q59.16 33.74 58.56 32.90Q57.96 32.06 57.58 31.14L57.58 31.14Q57.31 29.19 57.72 27.60Q58.13 26.01 58.90 24.66Q59.67 23.31 60.66 22.17Q61.65 21.02 62.58 19.93L62.58 19.93Q62.78 20.00 62.90 19.91Q63.02 19.82 63.12 19.67Q63.22 19.52 63.34 19.38Q63.46 19.24 63.63 19.21L63.63 19.21Q63.87 18.70 64.34 18.44Q64.80 18.18 65.07 17.71L65.07 17.71Q65.38 17.64 65.58 17.50Q65.79 17.36 65.98 17.19Q66.16 17.02 66.37 16.87Q66.57 16.71 66.85 16.65L66.85 16.65L66.85 16.27Q67.46 16.00 67.75 15.64Q68.04 15.28 68.45 14.77L68.45 14.77Q68.76 14.73 68.95 14.73Q69.14 14.73 69.51 14.66L69.51 14.66Q69.79 14.18 70.01 13.95Q70.23 13.71 70.68 13.43L70.68 13.43Q71.09 13.64 71.58 13.71Q72.08 13.77 72.45 14.15L72.45 14.15Q72.49 14.49 72.66 14.68Q72.83 14.87 73.03 15.02Q73.24 15.18 73.43 15.35Q73.62 15.52 73.68 15.83L73.68 15.83Q73.82 15.86 73.87 15.79Q73.92 15.72 74.06 15.76L74.06 15.76Q74.16 16.24 74.30 16.39Q74.44 16.54 74.57 16.99L74.57 16.99Q74.40 17.33 74.32 17.69Q74.23 18.05 73.89 18.22L73.89 18.22Q73.85 18.46 74.03 18.47Q74.20 18.49 74.23 18.66L74.23 18.66Q74.26 18.97 74.13 19.11L74.13 19.11Q74.95 20.44 75.60 21.93Q76.25 23.41 77.07 24.75ZM72.79 27.99L72.79 27.99Q72.93 27.62 73.15 27.38Q73.38 27.14 73.41 26.66L73.41 26.66Q73.24 26.39 73.21 26.23Q73.17 26.08 73.17 25.74L73.17 25.74Q72.42 24.68 71.87 23.46Q71.33 22.25 70.64 21.19L70.64 21.19Q70.57 21.33 70.40 21.46Q70.23 21.60 70.03 21.40L70.03 21.40Q69.96 21.67 69.79 21.79Q69.62 21.91 69.41 21.89Q69.21 21.88 68.98 21.79Q68.76 21.70 68.59 21.57L68.59 21.57Q67.60 22.35 66.61 23.11Q65.62 23.86 64.83 24.85L64.83 24.85Q64.69 24.92 64.66 24.90Q64.63 24.88 64.46 24.95L64.46 24.95Q64.18 25.60 63.79 26.13Q63.40 26.66 63.02 27.21Q62.64 27.75 62.37 28.37Q62.10 28.98 62.06 29.80L62.06 29.80Q62.64 30.28 63.43 30.39Q64.22 30.49 65.05 30.42Q65.89 30.35 66.69 30.20Q67.50 30.04 68.18 30.04L68.18 30.04Q69.62 29.70 70.64 29.14Q71.67 28.57 72.79 27.99ZM84.66 31.45L84.66 31.45Q84.28 32.81 83.99 33.51Q83.70 34.21 83.12 34.97L83.12 34.97Q82.67 34.90 82.50 35.07Q82.33 35.24 82.13 35.38L82.13 35.38Q81.82 35.44 81.68 35.38Q81.54 35.31 81.44 35.22Q81.34 35.14 81.19 35.05Q81.03 34.97 80.72 34.97L80.72 34.97Q80.66 34.69 80.57 34.45Q80.49 34.21 80.11 34.28L80.11 34.28Q80.18 34.01 80.14 33.82Q80.11 33.63 80.06 33.48Q80.01 33.33 79.97 33.17Q79.94 33.02 80.01 32.78L80.01 32.78Q79.84 32.78 79.73 32.54Q79.63 32.30 79.49 32.06L79.49 32.06Q79.60 31.45 79.70 30.90Q79.80 30.35 79.96 29.87Q80.11 29.39 80.21 28.92Q80.31 28.44 80.11 27.92L80.11 27.92Q80.25 28.03 80.31 27.87Q80.38 27.72 80.42 27.46Q80.45 27.21 80.45 26.95Q80.45 26.69 80.42 26.52L80.42 26.52Q80.76 25.63 80.98 24.69Q81.20 23.75 81.39 22.83Q81.58 21.91 81.78 21.02Q81.99 20.13 82.33 19.38L82.33 19.38Q82.71 19.31 83.17 19.47Q83.63 19.62 83.73 19.86L83.73 19.86Q84.62 19.17 85.30 18.20Q85.99 17.23 86.71 16.30Q87.42 15.38 88.30 14.66Q89.17 13.95 90.50 13.81L90.50 13.81Q91.18 14.32 92.02 14.85Q92.86 15.38 93.41 16.24L93.41 16.24Q93.68 16.37 93.87 16.53Q94.05 16.68 94.33 16.85L94.33 16.85L94.33 17.26Q94.74 17.64 94.99 18.13Q95.25 18.63 95.46 19.19Q95.66 19.76 95.87 20.32Q96.07 20.88 96.34 21.40L96.34 21.40Q96.28 21.57 96.28 21.69Q96.28 21.81 96.33 21.94Q96.38 22.08 96.41 22.22Q96.45 22.35 96.41 22.59L96.41 22.59Q96.31 24.10 95.44 25.02Q94.57 25.94 93.34 26.54Q92.11 27.14 90.71 27.55Q89.30 27.96 88.18 28.44L88.18 28.44Q88.18 28.57 88.30 28.57Q88.42 28.57 88.38 28.75L88.38 28.75Q89.20 29.26 89.68 29.57Q90.16 29.87 90.59 30.08Q91.01 30.28 91.51 30.44Q92.00 30.59 92.89 30.80L92.89 30.80Q93.78 31.00 94.28 31.12Q94.77 31.24 95.18 31.33Q95.59 31.41 96.02 31.46Q96.45 31.51 97.23 31.58L97.23 31.58Q97.54 31.89 97.76 32.32Q97.99 32.74 98.05 33.17Q98.12 33.60 98.09 33.99Q98.05 34.38 97.85 34.62L97.85 34.62Q97.88 34.73 98.00 34.71Q98.12 34.69 98.26 34.73L98.26 34.73Q98.05 34.86 97.92 35.07Q97.78 35.27 97.64 35.48Q97.51 35.68 97.34 35.84Q97.17 35.99 96.86 36.03L96.86 36.03Q95.80 36.44 94.19 36.08Q92.58 35.72 90.12 34.76L90.12 34.76Q88.89 34.28 88.12 33.92Q87.36 33.56 86.79 33.21Q86.23 32.85 85.77 32.44Q85.30 32.03 84.66 31.45ZM89.54 19.72L89.54 19.72Q89.17 20.27 88.71 20.71Q88.24 21.16 87.82 21.62Q87.39 22.08 87.05 22.64Q86.71 23.21 86.57 23.96L86.57 23.96Q87.77 23.82 89.06 23.29Q90.36 22.76 91.53 22.29L91.53 22.29Q91.39 21.23 90.79 20.58Q90.19 19.93 89.54 19.72ZM117.16 15.76L117.16 15.76Q117.19 16.00 117.18 16.12Q117.16 16.24 117.14 16.34Q117.13 16.44 117.13 16.56Q117.13 16.68 117.19 16.92L117.19 16.92Q116.48 18.08 115.54 18.51Q114.60 18.94 113.50 19.12Q112.41 19.31 111.26 19.52Q110.12 19.72 108.99 20.41L108.99 20.41Q108.55 20.23 108.19 20.41Q107.83 20.58 107.15 20.51L107.15 20.51Q106.94 20.71 106.63 20.80Q106.33 20.88 106.02 20.99L106.02 20.99Q106.15 21.29 106.14 21.62Q106.12 21.94 106.22 22.15L106.22 22.15Q107.42 22.25 108.87 22.11Q110.32 21.98 111.73 21.94L111.73 21.94Q111.76 22.11 111.69 22.17Q111.62 22.22 111.66 22.35L111.66 22.35Q111.90 22.52 112.14 22.78Q112.38 23.04 112.61 23.28Q112.85 23.52 113.11 23.67Q113.37 23.82 113.71 23.79L113.71 23.79Q113.84 24.06 113.90 24.39Q113.95 24.71 113.81 25.05L113.81 25.05Q113.26 25.43 112.72 25.82Q112.17 26.22 111.57 26.52Q110.97 26.83 110.31 27.02Q109.64 27.21 108.82 27.17L108.82 27.17Q108.65 27.17 108.56 27.17Q108.48 27.17 108.34 27.07L108.34 27.07Q108.07 27.24 107.57 27.17Q107.08 27.10 106.80 27.28L106.80 27.28Q106.43 27.10 105.90 27.12Q105.37 27.14 104.96 27.00L104.96 27.00Q104.41 27.72 103.97 28.54Q103.52 29.36 103.18 30.28L103.18 30.28Q104.34 30.45 105.11 30.42Q105.88 30.39 106.56 30.30Q107.25 30.21 107.97 30.13Q108.68 30.04 109.78 30.08L109.78 30.08Q110.46 29.70 111.40 29.58Q112.34 29.46 113.13 29.19L113.13 29.19Q113.40 29.29 113.61 29.55Q113.81 29.80 114.00 30.03Q114.19 30.25 114.39 30.42Q114.60 30.59 114.90 30.56L114.90 30.56Q115.04 30.69 115.09 30.88Q115.14 31.07 115.18 31.24Q115.21 31.41 115.30 31.53Q115.38 31.65 115.59 31.62L115.59 31.62Q115.08 32.74 114.41 33.34Q113.74 33.94 112.89 34.25Q112.03 34.56 110.99 34.73Q109.95 34.90 108.68 35.14L108.68 35.14Q108.38 35.21 108.17 35.12Q107.97 35.03 107.69 35.03L107.69 35.03Q106.91 35.21 105.81 35.34Q104.72 35.48 103.59 35.44Q102.46 35.41 101.44 35.15Q100.41 34.90 99.76 34.25L99.76 34.25Q99.49 34.01 99.40 33.68Q99.32 33.36 98.94 33.19L98.94 33.19Q98.91 32.74 98.81 32.20Q98.70 31.65 98.60 31.05Q98.50 30.45 98.45 29.87Q98.40 29.29 98.50 28.81L98.50 28.81Q98.60 28.30 98.93 27.89Q99.25 27.48 99.15 27.00L99.15 27.00Q99.32 26.97 99.35 26.81Q99.39 26.66 99.63 26.69L99.63 26.69Q99.83 26.08 100.07 25.53Q100.31 24.99 100.57 24.47Q100.82 23.96 101.08 23.43Q101.33 22.90 101.57 22.25L101.57 22.25Q101.10 21.81 100.87 21.28Q100.65 20.75 100.55 20.22Q100.45 19.69 100.38 19.12Q100.31 18.56 100.14 17.98L100.14 17.98Q100.48 17.47 100.98 17.14Q101.47 16.82 102.05 16.61Q102.63 16.41 103.32 16.27Q104.00 16.13 104.75 15.96L104.75 15.96Q106.12 15.52 107.20 15.28Q108.27 15.04 109.32 14.89Q110.36 14.73 111.49 14.59Q112.61 14.46 114.05 14.18L114.05 14.18Q114.36 14.49 114.63 14.49L114.63 14.49Q114.77 14.18 114.96 14.30Q115.14 14.42 115.11 14.12L115.11 14.12Q115.45 14.70 115.98 15.09Q116.51 15.48 117.16 15.76Z"/></g>
                
            </svg>
        