<!DOCTYPE svg PUBLIC "-//W3C//DTD SVG 1.1//EN" "http://www.w3.org/Graphics/SVG/1.1/DTD/svg11.dtd">
<!-- Uploaded to: SVG Repo, www.svgrepo.com, Transformed by: SVG Repo Mixer Tools -->
<svg width="800px" height="800px" viewBox="0 0 70 70" xmlns="http://www.w3.org/2000/svg" fill="#000000">
<g id="SVGRepo_bgCarrier" stroke-width="0"/>
<g id="SVGRepo_tracerCarrier" stroke-linecap="round" stroke-linejoin="round"/>
<g id="SVGRepo_iconCarrier">
<title>Fashion</title>
<path d="M52.21,14a7.3,7.3,0,0,1,0,10.8,16,16,0,0,0-3.6,11.35,34,34,0,0,1-10.89,1.77,26.64,26.64,0,0,1-9.8-1.69,16,16,0,0,0-3.6-11.35,7.28,7.28,0,0,1,0-10.8l9.79,9.15a6.14,6.14,0,0,0,4.18,1.65,6.3,6.3,0,0,0,2.25-.43,6.36,6.36,0,0,0,1.93-1.22Z" fill="#00FFB0"/>
<path d="M48.61,36.17c0.3,3.49,11.14,26.32,11.14,26.32a53.88,53.88,0,0,1-43.18,0c2.8-4.26,11.05-22.75,11.35-26.24a26.64,26.64,0,0,0,9.8,1.69A34,34,0,0,0,48.61,36.17Z" fill="#00FFB0"/>
<line x1="19.99" y1="14.1" x2="19.99" y2="3" fill="none" stroke="#1A6A83" stroke-linecap="round" stroke-miterlimit="10" stroke-width="2"/>
<line x1="47.94" y1="14.1" x2="47.94" y2="3" fill="none" stroke="#1A6A83" stroke-linecap="round" stroke-miterlimit="10" stroke-width="2"/>
<path d="M23.92,36.25a16,16,0,0,0-3.6-11.35,7.28,7.28,0,0,1,0-10.8l9.79,9.15a6.14,6.14,0,0,0,4.18,1.65,6.3,6.3,0,0,0,2.25-.43,6.36,6.36,0,0,0,1.93-1.22L48.21,14a7.3,7.3,0,0,1,0,10.8,16,16,0,0,0-3.6,11.35c0.3,3.49,11.14,26.32,11.14,26.32a53.88,53.88,0,0,1-43.18,0C15.37,58.23,23.62,39.74,23.92,36.25Z" fill="none" stroke="#1A6A83" stroke-linejoin="round" stroke-width="2"/>
<path d="M23.92,36.25a26.64,26.64,0,0,0,9.8,1.69,34,34,0,0,0,10.89-1.77" fill="none" stroke="#1A6A83" stroke-linejoin="round" stroke-width="2"/>
</g>
</svg>